
<svg class="svg-icon" style="width: 1.0244140625em;height: 1em;vertical-align: middle;fill: white;overflow: hidden;" viewBox="0 0 1049 1024" version="1.1" xmlns="http://www.w3.org/2000/svg"><path d="M741.172204 1024h-498.664018A242.77064 242.77064 0 0 1 0 781.557428V338.517413A242.77064 242.77064 0 0 1 242.491782 96.058437h564.835421A242.77064 242.77064 0 0 1 1049.818986 338.517413v449.109281a60.905905 60.905905 0 1 1-121.795406 0V338.517413a120.8112 120.8112 0 0 0-120.696377-120.647167H242.491782a120.8112 120.8112 0 0 0-120.696376 120.647167v443.040015A120.8112 120.8112 0 0 0 242.491782 902.188191h498.664018a60.905905 60.905905 0 0 1 0 121.795406z" fill="#ffffff" /><path d="M274.626085 326.624932m0-43.501874l0-239.621184q0-43.501874 43.501875-43.501874l0 0q43.501874 0 43.501874 43.501874l0 239.621184q0 43.501874-43.501874 43.501874l0 0q-43.501874 0-43.501875-43.501874Z" fill="#ffffff" /><path d="M219.887867 652.692148m43.501874 0l135.57428 0q43.501874 0 43.501875 43.501874l0 0q0 43.501874-43.501875 43.501874l-135.57428 0q-43.501874 0-43.501874-43.501874l0 0q0-43.501874 43.501874-43.501874Z" fill="#12ADA9" /><path d="M587.833018 652.692148m43.501875 0l135.574279 0q43.501874 0 43.501875 43.501874l0 0q0 43.501874-43.501875 43.501874l-135.574279 0q-43.501874 0-43.501875-43.501874l0 0q0-43.501874 43.501875-43.501874Z" fill="#ffffff" /><path d="M686.433986 326.624932m0-43.501874l0-239.621184q0-43.501874 43.501874-43.501874l0 0q43.501874 0 43.501874 43.501874l0 239.621184q0 43.501874-43.501874 43.501874l0 0q-43.501874 0-43.501874-43.501874Z" fill="#ffffff" /><path d="M67.270432 424.405728m43.501874 0l852.239772 0q43.501874 0 43.501875 43.501875l0 0q0 43.501874-43.501875 43.501874l-852.239772 0q-43.501874 0-43.501874-43.501874l0 0q0-43.501874 43.501874-43.501875Z" fill="#ffffff" /></svg>
